<?xml version="1.0" encoding="UTF-8" standalone="no"?>
<!DOCTYPE svg PUBLIC "-//W3C//DTD SVG 1.1//EN"
"http://www.w3.org/Graphics/SVG/1.1/DTD/svg11.dtd">


<!-- Page 4 -->
<svg x="0" y="0" width="1210" height="935" viewBox="0 0 1210 935" version="1.1" xmlns="http://www.w3.org/2000/svg" xmlns:xlink="http://www.w3.org/1999/xlink"
style="display: block;margin-left: auto;margin-right: auto;">
<defs>

<style type="text/css"><![CDATA[

.g0_4{
fill: #D1463C;
}
.g1_4{
fill: #231F20;
}
.g2_4{
fill: #FFFFFF;
}


]]></style>

</defs>
<path d="M0,0
L0,935
L1210,935
L1210,0 Z " 
fill="rgba(0, 0, 0, 0)" stroke="none" />
<path d="M625.4,130.7h35.7c-5.9,-.7,-12,-1,-18.3,-1c-6,0,-11.7,.3,-17.4,1Z" class="g0_4" />
<path d="M661.3,400.6H625.5c5.6,.7,11.4,1.1,17.3,1.1c6.4,0,12.6,-.4,18.5,-1.1Z" class="g0_4" />
<path d="M883,130.7H772.9c5.7,6.3,10.9,13.1,15.8,20.4l-43.4,31.1C727.6,154.8,699.4,135.4,661.1,130.7H625.4c-66.3,8.2,-111.9,63,-111.9,134.7c0,71.7,45.6,127,112,135.2h35.8c40.4,-4.9,68.7,-25.9,89.3,-56.3l43.5,30.6c-6.1,9.3,-12.9,17.9,-20.5,25.7H883Z" class="g0_4" />
<path d="M455.5,265.4c0,-54.7,21.2,-101.6,55.3,-134.7H366.6V400.6H511.1C476.8,367.4,455.5,320.3,455.5,265.4Z" class="g0_4" />
<path d="M289.8,131.1l-96.4,96.4L97,131.1L58.1,170l96.4,96.4L58.1,362.7L97,401.6l96.4,-96.4l96.4,96.4l38.9,-38.9L232.3,266.4L328.7,170Z" class="g0_4" />
<path d="M1152.7,347.5l-123,.8l85.2,-65.2l.5,-.4c3,-2.1,5.9,-4.3,8.8,-6.7l3,-2.3l-.2,-.2c14.2,-12.6,26,-30,26,-57.8c0,-48.2,-46.9,-84.6,-109.7,-84.6c-60.6,0,-106.6,34.1,-109.6,81.2l-.7,12h60.9l1.2,-10c1.9,-15.7,22.4,-27.6,48.2,-27.6c27.1,0,48.4,13.2,48.4,30.1c0,10,-4.1,16.8,-16.6,27.4L935,351.2l-4.5,3.6v45.5h222.8Z" class="g0_4" />
<path d="M1153.7,718.3H60.9V593H1153.7V718.3Z" class="g1_4" />
<path d="M82,524.1v32.2H97c2.8,0,5.4,-.3,7.9,-1c2.5,-.7,4.7,-1.7,6.6,-3c1.8,-1.3,3.3,-3,4.3,-5.1c1.1,-2,1.7,-4.4,1.7,-7.1c0,-3.1,-.7,-5.6,-1.9,-7.6c-1.3,-2,-3,-3.6,-5.1,-4.9c-2.1,-1.2,-4.5,-2.1,-7.2,-2.7c-2.7,-.5,-5.4,-.8,-8.2,-.8Zm0,-44.9v31.3H96.4c5.2,0,9.2,-1.6,11.8,-4.7c2.7,-3.1,4,-6.9,4,-11.4c0,-5.3,-1.6,-9.1,-4.8,-11.6c-3.1,-2.4,-7.4,-3.6,-12.6,-3.6ZM65.9,570.8V464.7H94c5.2,0,9.9,.5,14.1,1.5c4.2,1,7.7,2.7,10.7,4.9c2.9,2.1,5.2,5,6.8,8.4c1.6,3.5,2.4,7.7,2.4,12.7c0,2.7,-.3,5.4,-.8,8.1c-.5,2.6,-1.4,5,-2.6,7.2c-1.3,2.2,-2.9,4.1,-4.9,5.8c-2,1.6,-4.4,2.9,-7.4,3.8c2.6,.5,5.1,1.3,7.6,2.5c2.5,1.1,4.7,2.7,6.6,4.7c2,2,3.6,4.5,4.8,7.4c1.2,3,1.8,6.4,1.8,10.4c0,5.1,-1,9.4,-2.9,13c-2,3.7,-4.5,6.6,-7.8,9c-3.2,2.3,-6.9,4,-11.1,5.1c-4.2,1.1,-8.5,1.6,-13,1.6Z" class="g1_4" />
<path d="M173.1,570.8V464.7h16.1v90.9h52.7v15.2Z" class="g1_4" />
<path d="M282.3,518c0,5.3,1,10.4,3,15.1c2,4.8,4.7,8.9,8.3,12.4c3.5,3.5,7.6,6.3,12.2,8.3c4.7,2.1,9.7,3.1,15,3.1c5.2,0,10.2,-1,14.8,-3.1c4.7,-2,8.7,-4.8,12.2,-8.3c3.4,-3.5,6.2,-7.6,8.2,-12.4c2,-4.7,3,-9.8,3,-15.3c0,-5.3,-1,-10.4,-3,-15.1c-2,-4.8,-4.8,-8.9,-8.3,-12.4c-3.5,-3.5,-7.6,-6.3,-12.2,-8.3c-4.6,-2.1,-9.6,-3.1,-14.9,-3.1c-5.2,0,-10.2,1,-14.9,3.1c-4.7,2,-8.8,4.8,-12.2,8.3c-3.5,3.5,-6.2,7.7,-8.2,12.4c-2,4.8,-3,9.9,-3,15.3m-16,-.2c0,-7.3,1.4,-14.3,4.3,-20.8c2.8,-6.6,6.7,-12.4,11.6,-17.4c4.9,-5,10.7,-8.9,17.2,-11.8c6.5,-2.8,13.6,-4.3,21.1,-4.3c7.4,0,14.4,1.5,21,4.3c6.6,2.9,12.3,6.8,17.3,11.8c4.9,5,8.8,10.8,11.7,17.4c2.9,6.5,4.3,13.5,4.3,20.8c0,7.5,-1.4,14.6,-4.3,21.1c-2.9,6.5,-6.8,12.3,-11.7,17.2c-5,4.9,-10.7,8.8,-17.3,11.6c-6.6,2.9,-13.6,4.3,-21,4.3c-7.5,0,-14.6,-1.4,-21.1,-4.3c-6.5,-2.8,-12.3,-6.7,-17.2,-11.6c-4.9,-4.9,-8.8,-10.7,-11.6,-17.2c-2.9,-6.5,-4.3,-13.6,-4.3,-21.1Z" class="g1_4" />
<path d="M492.3,563.2c-1.1,.9,-2.8,1.8,-4.9,2.9c-2.1,1,-4.5,1.9,-7.4,2.8c-2.8,.9,-5.9,1.6,-9.4,2.2c-3.5,.6,-7.2,.9,-11.1,.9c-8.2,0,-15.7,-1.5,-22.3,-4.3C430.6,564.8,425,560.9,420.5,556c-4.6,-4.9,-8.1,-10.5,-10.6,-17c-2.4,-6.4,-3.6,-13.2,-3.6,-20.4c0,-8,1.4,-15.4,4.3,-22.1c2.9,-6.8,6.8,-12.6,11.8,-17.5c4.9,-4.8,10.8,-8.7,17.5,-11.4c6.6,-2.7,13.7,-4.1,21.3,-4.1c2.8,0,5.7,.2,8.6,.6c2.9,.4,5.7,.9,8.3,1.6c2.5,.7,4.8,1.5,6.8,2.4c2,1,3.6,1.9,4.7,2.9c-.8,1.1,-1.4,2.1,-1.9,2.9c-.4,.8,-.9,1.6,-1.4,2.4c-.5,.9,-1,1.8,-1.6,2.9c-.6,1.1,-1.3,2.5,-2.3,4.2c-1.3,-.9,-2.8,-1.6,-4.5,-2.2c-1.7,-.6,-3.5,-1,-5.3,-1.4c-1.9,-.4,-3.8,-.7,-5.7,-.9c-1.9,-.2,-3.6,-.3,-5.2,-.3c-5.6,0,-10.9,1,-15.7,3.1c-4.8,2.1,-9,5,-12.5,8.5c-3.5,3.6,-6.3,7.7,-8.3,12.4c-2,4.7,-3,9.6,-3,14.6c0,5,1,9.8,2.9,14.4c1.9,4.6,4.5,8.7,7.9,12.3c3.3,3.6,7.4,6.5,12.1,8.6c4.8,2.2,10,3.2,15.6,3.2c3,0,6,-.3,8.8,-.8c2.8,-.6,5.4,-1.3,7.7,-2.1c2.3,-.8,4.2,-1.6,5.7,-2.3c1.5,-.8,2.4,-1.4,2.7,-1.8Z" class="g1_4" />
<path d="M590.1,570.8c-3.4,-4.4,-6.7,-8.6,-9.8,-12.6c-3.1,-4,-6.2,-8,-9.2,-12c-3,-4,-6.1,-8,-9.2,-12.1c-3,-4.1,-6.3,-8.4,-9.7,-12.8c-1.3,1.4,-2.5,2.6,-3.7,3.8c-1.1,1.1,-2.4,2.2,-3.8,3.4c0,7.5,.1,14.6,.1,21.2c.1,6.5,.1,13.6,.1,21.1H527.2V464.7h17.7v39.7c0,.8,-.1,1.7,-.2,2.5c-.2,.8,-.3,1.7,-.3,2.6c.5,-.7,1,-1.3,1.5,-1.9c.5,-.5,1,-1.1,1.5,-1.9c6.9,-6.6,13.6,-13.4,20,-20.4c6.5,-7.1,13.2,-14,20.1,-20.6h20.3c-7.3,7.6,-14.5,15.3,-21.7,23c-7.2,7.7,-14.4,15.3,-21.7,22.9c4.1,5.3,8,10.4,11.7,15.3c3.8,5,7.5,9.9,11.2,14.8c3.6,4.8,7.3,9.8,11,14.7c3.7,5,7.6,10.1,11.6,15.4Z" class="g1_4" />
<path d="M714.2,563.2c-1.1,.9,-2.8,1.8,-4.9,2.9c-2.1,1,-4.5,1.9,-7.3,2.8c-2.9,.9,-6,1.6,-9.5,2.2c-3.5,.6,-7.1,.9,-11,.9c-8.3,0,-15.8,-1.5,-22.4,-4.3C652.5,564.8,647,560.9,642.4,556c-4.6,-4.9,-8.1,-10.5,-10.6,-17c-2.4,-6.4,-3.6,-13.2,-3.6,-20.4c0,-8,1.4,-15.4,4.3,-22.1c2.9,-6.8,6.8,-12.6,11.8,-17.5c5,-4.8,10.8,-8.7,17.5,-11.4c6.7,-2.7,13.8,-4.1,21.3,-4.1c2.8,0,5.7,.2,8.6,.6c2.9,.4,5.7,.9,8.3,1.6c2.6,.7,4.9,1.5,6.9,2.4c2,1,3.5,1.9,4.6,2.9c-.8,1.1,-1.4,2.1,-1.9,2.9c-.4,.8,-.9,1.6,-1.4,2.4c-.4,.9,-1,1.8,-1.6,2.9c-.5,1.1,-1.3,2.5,-2.3,4.2c-1.3,-.9,-2.8,-1.6,-4.5,-2.2c-1.7,-.6,-3.5,-1,-5.3,-1.4c-1.9,-.4,-3.7,-.7,-5.6,-.9c-2,-.2,-3.7,-.3,-5.2,-.3c-5.7,0,-10.9,1,-15.8,3.1c-4.8,2.1,-9,5,-12.5,8.5c-3.5,3.6,-6.3,7.7,-8.3,12.4c-2,4.7,-3,9.6,-3,14.6c0,5,1,9.8,2.9,14.4c1.9,4.6,4.5,8.7,7.9,12.3c3.4,3.6,7.4,6.5,12.1,8.6c4.8,2.2,10,3.2,15.6,3.2c3.1,0,6,-.3,8.8,-.8c2.8,-.6,5.4,-1.3,7.7,-2.1c2.3,-.8,4.2,-1.6,5.7,-2.3c1.5,-.8,2.4,-1.4,2.7,-1.8Z" class="g1_4" />
<path d="M749.1,570.8V464.7H765v45.1h53.2V464.7h16.1V500c0,5.8,0,11.7,-.1,17.7c0,6,-.1,12,-.1,17.8v35.3H818.2V525H765v45.8Z" class="g1_4" />
<path d="M901.6,526.9h26.5c-1.4,-3.2,-2.6,-6.3,-3.9,-9.3c-1.2,-3,-2.3,-5.7,-3.3,-8.2c-1.1,-2.5,-2,-4.7,-2.7,-6.5c-.8,-1.9,-1.4,-3.3,-1.8,-4.4c-.1,-.2,-.3,-.9,-.7,-2.1c-.3,-1.1,-.6,-2.2,-.8,-3.2c-.2,1,-.5,2.1,-.8,3.2c-.4,1.2,-.7,1.9,-.8,2.1Zm44.7,43.9c-.5,-1.1,-1.2,-2.6,-2.1,-4.7c-.9,-2,-1.9,-4.4,-3,-7.1c-1.1,-2.7,-2.3,-5.6,-3.6,-8.8c-1.4,-3.1,-2.7,-6.4,-4.1,-9.8H896.1l-12.6,30.4H867.7L914.9,459.7c.6,1.4,1.7,3.9,3.2,7.5c1.5,3.6,3.3,7.9,5.4,12.9c2.1,5.1,4.4,10.6,7,16.7c2.6,6.1,5.2,12.3,7.9,18.5c2.7,6.3,5.3,12.4,7.9,18.5c2.6,6,5,11.6,7.1,16.7c2.2,5,4,9.4,5.5,12.9c1.5,3.6,2.6,6,3.2,7.4Z" class="g1_4" />
<path d="M995.4,464.7h16V570.8h-16V464.7Z" class="g1_4" />
<path d="M1150.8,464.7V575.6c-1.4,-1.7,-4,-4.5,-7.9,-8.4c-4,-3.9,-8.4,-8.4,-13.5,-13.5c-5.1,-5.1,-10.5,-10.4,-16.2,-16c-5.7,-5.5,-11.1,-10.8,-16.2,-15.9c-5,-5,-9.5,-9.5,-13.3,-13.4c-3.8,-4,-6.3,-6.8,-7.6,-8.4l-2.8,-3.8l.5,4.6v70h-16.1V459.7c1,1.4,2.8,3.3,5.3,5.9c2.5,2.5,5.4,5.5,8.8,8.8c3.3,3.4,7.1,7,11.1,10.9c4.1,3.9,8.2,7.9,12.3,11.9c4.2,4,8.2,7.9,12.3,11.8c4,3.8,7.8,7.4,11.1,10.7c3.4,3.3,6.3,6.3,8.7,8.8c2.5,2.5,4.2,4.4,5.2,5.7l2.7,4.1l-.4,-5V464.7Z" class="g1_4" />
<path d="M108.4,689.5V623.8h39.3V633H118.3v19.8H144V662H118.3v27.5Z" class="g2_4" />
<path d="M176.4,656.8c0,3.3,.6,6.4,1.9,9.3c1.2,3,2.9,5.5,5.1,7.7c2.2,2.2,4.7,3.9,7.6,5.2c2.9,1.2,6,1.9,9.2,1.9c3.3,0,6.4,-.7,9.2,-1.9c2.9,-1.3,5.4,-3,7.5,-5.2c2.2,-2.2,3.9,-4.7,5.1,-7.7c1.2,-2.9,1.9,-6,1.9,-9.4c0,-3.3,-.7,-6.5,-1.9,-9.4c-1.2,-2.9,-2.9,-5.5,-5.1,-7.6c-2.2,-2.2,-4.7,-3.9,-7.6,-5.2c-2.8,-1.3,-5.9,-1.9,-9.2,-1.9c-3.2,0,-6.3,.6,-9.2,1.9c-2.9,1.3,-5.4,3,-7.5,5.2c-2.2,2.1,-3.9,4.7,-5.1,7.7c-1.3,2.9,-1.9,6.1,-1.9,9.4m-9.8,-.1c0,-4.5,.8,-8.8,2.6,-12.9c1.7,-4.1,4.1,-7.7,7.2,-10.7c3,-3.1,6.6,-5.5,10.6,-7.3c4.1,-1.8,8.4,-2.7,13.1,-2.7c4.5,0,8.9,.9,12.9,2.7c4.1,1.8,7.7,4.2,10.7,7.3c3.1,3,5.5,6.6,7.3,10.7c1.8,4.1,2.6,8.4,2.6,12.9c0,4.6,-.8,9,-2.6,13c-1.8,4.1,-4.2,7.6,-7.3,10.7c-3,3,-6.6,5.4,-10.7,7.2c-4,1.7,-8.4,2.6,-12.9,2.6c-4.7,0,-9,-.9,-13.1,-2.6c-4,-1.8,-7.6,-4.2,-10.6,-7.2c-3.1,-3.1,-5.5,-6.6,-7.2,-10.7c-1.8,-4,-2.6,-8.4,-2.6,-13Z" class="g2_4" />
<path d="M267.6,656.7h8.9c2.5,0,4.5,-.4,6.1,-1.2c1.6,-.9,2.9,-1.9,3.9,-3.1c.9,-1.2,1.6,-2.5,2,-3.9c.3,-1.3,.5,-2.6,.5,-3.8c0,-1.1,-.2,-2.4,-.5,-3.7c-.4,-1.4,-1.1,-2.6,-2.1,-3.8c-1,-1.2,-2.2,-2.2,-3.8,-3c-1.6,-.7,-3.6,-1.1,-6,-1.1h-9Zm-10,32.8V623.8h18c3.4,0,6.5,.5,9.4,1.4c2.9,.9,5.4,2.2,7.4,4c2.1,1.8,3.7,4,4.9,6.5c1.1,2.6,1.7,5.5,1.7,8.9c0,1.8,-.2,3.6,-.5,5.3c-.4,1.8,-1,3.5,-1.8,5.2c-.8,1.7,-1.9,3.2,-3.1,4.6c-1.3,1.4,-2.8,2.6,-4.7,3.6c2.5,3.8,5.1,8,7.9,12.6c2.9,4.6,5.7,9.1,8.6,13.6H293.6c-1.2,-1.9,-2.5,-3.9,-3.8,-5.9c-1.3,-2.1,-2.6,-4.1,-3.9,-6.1c-1.3,-2.1,-2.5,-4.1,-3.8,-6c-1.2,-2,-2.4,-3.8,-3.5,-5.5h-11v23.5Z" class="g2_4" />
<path d="M397.8,627.4l-3.5,8.1c-2.5,-.9,-4.9,-1.6,-7.4,-2.2c-2.4,-.5,-4.7,-.8,-7,-.8c-3.8,0,-6.8,.8,-9.1,2.4c-2.2,1.5,-3.4,3.5,-3.4,5.9c0,2.1,.8,3.7,2.5,5c1.6,1.2,3.6,2.3,6,3.3c2.5,1,5.1,2,7.9,3c2.9,1,5.5,2.3,7.9,3.9c2.4,1.5,4.4,3.5,6.1,5.9c1.6,2.4,2.4,5.4,2.4,9.2c0,2.9,-.5,5.5,-1.6,7.8c-1,2.3,-2.6,4.3,-4.7,6c-2.1,1.7,-4.7,3,-7.8,3.9c-3.1,.9,-6.7,1.4,-10.9,1.4c-2.6,0,-5,-.2,-7.2,-.6c-2.1,-.3,-4.1,-.8,-5.8,-1.4c-1.7,-.5,-3.2,-1.2,-4.5,-1.8c-1.3,-.7,-2.4,-1.3,-3.3,-1.8l4.3,-8.6c2.5,1.4,5.1,2.5,8.1,3.3c3,.9,5.6,1.3,8.1,1.3c1.2,0,2.7,-.2,4.4,-.5c1.8,-.3,3.5,-.8,5.2,-1.6c1.6,-.7,3,-1.7,4.2,-3c1.1,-1.3,1.7,-2.9,1.7,-4.8c0,-1.7,-.4,-3.2,-1.4,-4.5c-.9,-1.2,-2.2,-2.3,-3.7,-3.2c-1.5,-1,-3.3,-1.8,-5.2,-2.6c-2,-.7,-4,-1.5,-6.1,-2.3c-2,-.8,-4,-1.7,-6,-2.6c-1.9,-.9,-3.7,-2,-5.2,-3.3c-1.6,-1.3,-2.8,-2.8,-3.7,-4.5c-1,-1.7,-1.4,-3.8,-1.4,-6.2c0,-2.3,.4,-4.5,1.3,-6.6c.9,-2.2,2.3,-4.1,4.1,-5.8c1.8,-1.7,4,-3.1,6.7,-4.1c2.7,-1,5.8,-1.5,9.4,-1.5c2.2,0,4.3,.1,6.4,.5c2.1,.4,3.9,.8,5.6,1.2c1.7,.5,3.2,.9,4.3,1.3c1.2,.5,2,.8,2.3,.9Z" class="g2_4" />
<path d="M448.2,690.2c-3.5,0,-6.8,-.6,-9.8,-1.7c-3,-1.2,-5.7,-2.8,-7.9,-4.9c-2.3,-2.1,-4.1,-4.6,-5.4,-7.5c-1.3,-2.9,-1.9,-6.2,-1.9,-9.8V623.8h10V666c0,2.1,.3,4.1,1.1,5.8c.7,1.8,1.8,3.4,3.2,4.8c1.3,1.3,2.9,2.4,4.7,3.1c1.8,.8,3.8,1.2,6,1.2c2.1,0,4.1,-.4,5.9,-1.2c1.8,-.7,3.4,-1.8,4.8,-3.1c1.4,-1.4,2.4,-3,3.2,-4.8c.8,-1.7,1.2,-3.7,1.2,-5.8V623.8h10v42.5c0,3.6,-.7,6.9,-2,9.8c-1.3,2.9,-3.1,5.4,-5.3,7.5c-2.3,2.1,-5,3.7,-8,4.9c-3,1.1,-6.3,1.7,-9.8,1.7Z" class="g2_4" />
<path d="M511.1,656.7h9c2.4,0,4.4,-.4,6,-1.3c1.6,-.8,2.9,-1.9,3.9,-3.1c.9,-1.2,1.6,-2.5,2,-3.9c.3,-1.3,.5,-2.6,.5,-3.7c0,-1.1,-.2,-2.4,-.5,-3.7c-.4,-1.4,-1.1,-2.6,-2.1,-3.8c-.9,-1.2,-2.2,-2.2,-3.8,-3c-1.6,-.7,-3.6,-1.1,-6,-1.1h-9Zm-10,32.8V623.8h18c3.4,0,6.5,.5,9.4,1.4c2.9,.9,5.4,2.2,7.4,4c2.1,1.8,3.7,4,4.9,6.5c1.1,2.6,1.7,5.5,1.7,8.9c0,2.6,-.4,5.1,-1.2,7.7c-.8,2.6,-2,4.9,-3.8,6.9c-1.7,2,-4,3.6,-6.9,4.9c-2.8,1.3,-6.2,1.9,-10.3,1.9h-9.2v23.5Z" class="g2_4" />
<path d="M575.8,656.7h9c2.4,0,4.4,-.4,6,-1.3c1.7,-.8,3,-1.9,3.9,-3.1c.9,-1.2,1.6,-2.5,2,-3.9c.4,-1.3,.6,-2.6,.6,-3.7c0,-1.1,-.2,-2.4,-.6,-3.7c-.4,-1.4,-1.1,-2.6,-2.1,-3.8c-.9,-1.2,-2.2,-2.2,-3.8,-3c-1.6,-.7,-3.6,-1.1,-5.9,-1.1h-9.1Zm-9.9,32.8V623.8h17.9c3.4,0,6.6,.5,9.4,1.4c2.9,.9,5.4,2.2,7.5,4c2,1.8,3.7,4,4.8,6.5c1.1,2.6,1.7,5.5,1.7,8.9c0,2.6,-.4,5.1,-1.2,7.7c-.7,2.6,-2,4.9,-3.8,6.9c-1.7,2,-4,3.6,-6.8,4.9c-2.9,1.3,-6.3,1.9,-10.4,1.9h-9.2v23.5Z" class="g2_4" />
<path d="M630.6,689.5V623.8h9.9V680h32.6v9.5Z" class="g2_4" />
<path d="M712.4,667.8v21.7h-9.9V667.8c-.5,-.6,-1.3,-2.1,-2.5,-4.3c-1.3,-2.3,-2.7,-4.9,-4.4,-7.9c-1.6,-3.1,-3.4,-6.3,-5.3,-9.8c-1.9,-3.4,-3.7,-6.7,-5.4,-9.7c-1.6,-3.1,-3.1,-5.7,-4.3,-7.9c-1.2,-2.3,-2.1,-3.7,-2.5,-4.4h11.2c.6,.9,1.5,2.7,2.9,5.2c1.4,2.6,3,5.5,4.6,8.7c1.7,3.2,3.5,6.5,5.2,9.8c1.8,3.3,3.2,6.1,4.4,8.5l1,2.9c.3,-.4,.5,-.9,.7,-1.4c.1,-.6,.3,-1.1,.5,-1.5c1.3,-2.4,2.8,-5.2,4.4,-8.5c1.7,-3.3,3.4,-6.6,5.1,-9.8c1.6,-3.2,3.1,-6.1,4.5,-8.7c1.4,-2.5,2.3,-4.3,2.8,-5.2h11.2Z" class="g2_4" />
<path d="M839.7,684.7c-.7,.6,-1.8,1.2,-3,1.8c-1.3,.6,-2.9,1.2,-4.6,1.8c-1.8,.5,-3.7,1,-5.9,1.3c-2.1,.4,-4.4,.6,-6.8,.6c-5.1,0,-9.7,-.9,-13.8,-2.7c-4.1,-1.8,-7.5,-4.2,-10.4,-7.2c-2.8,-3,-5,-6.5,-6.5,-10.5c-1.5,-4,-2.2,-8.2,-2.2,-12.7c0,-4.9,.8,-9.5,2.6,-13.6c1.8,-4.2,4.2,-7.8,7.3,-10.8c3.1,-3,6.7,-5.4,10.8,-7.1c4.2,-1.7,8.6,-2.5,13.2,-2.5c1.8,0,3.5,.1,5.3,.4c1.9,.2,3.6,.5,5.2,1c1.6,.4,3,.9,4.2,1.5c1.3,.5,2.2,1.1,2.9,1.7c-.5,.7,-.9,1.3,-1.2,1.8c-.2,.5,-.5,1,-.8,1.5c-.3,.5,-.7,1.1,-1,1.8c-.4,.7,-.9,1.5,-1.5,2.6c-.8,-.5,-1.7,-1,-2.7,-1.3c-1.1,-.4,-2.2,-.7,-3.3,-1c-1.2,-.2,-2.3,-.4,-3.5,-.5c-1.2,-.1,-2.3,-.2,-3.2,-.2c-3.5,0,-6.8,.7,-9.8,2c-3,1.3,-5.5,3,-7.7,5.2c-2.2,2.2,-3.9,4.8,-5.1,7.7c-1.3,2.9,-1.9,5.9,-1.9,9c0,3.1,.6,6.1,1.8,8.9c1.2,2.8,2.8,5.4,4.9,7.6c2.1,2.2,4.6,4,7.5,5.3c2.9,1.4,6.1,2,9.6,2c1.9,0,3.7,-.2,5.5,-.5c1.7,-.4,3.3,-.8,4.7,-1.3c1.4,-.5,2.6,-.9,3.5,-1.4c1,-.5,1.5,-.9,1.7,-1.1Z" class="g2_4" />
<path d="M861.2,689.5V623.8h9.9v27.9H904V623.8h9.9v21.9c0,3.6,0,7.2,0,10.9c-.1,3.8,-.1,7.4,-.1,11v21.9H904V661.1H871.1v28.4Z" class="g2_4" />
<path d="M955.6,662.3h16.3c-.8,-2,-1.6,-3.9,-2.4,-5.8c-.7,-1.8,-1.4,-3.5,-2,-5c-.7,-1.6,-1.2,-2.9,-1.7,-4c-.5,-1.2,-.9,-2.1,-1.1,-2.8c-.1,-.1,-.2,-.5,-.4,-1.2c-.2,-.8,-.4,-1.4,-.5,-2c-.1,.6,-.3,1.2,-.6,2c-.2,.7,-.3,1.1,-.4,1.2Zm27.6,27.2c-.3,-.7,-.8,-1.7,-1.3,-2.9c-.5,-1.3,-1.2,-2.8,-1.9,-4.4c-.7,-1.7,-1.4,-3.5,-2.2,-5.5c-.8,-1.9,-1.7,-4,-2.5,-6.1H952.1l-7.8,18.9h-9.7l29.2,-68.8c.4,.9,1,2.4,1.9,4.7c1,2.2,2.1,4.9,3.4,8c1.3,3.1,2.7,6.5,4.3,10.3c1.6,3.8,3.3,7.6,4.9,11.4c1.7,3.9,3.3,7.7,4.9,11.5c1.6,3.7,3.1,7.1,4.4,10.3c1.3,3.1,2.5,5.8,3.4,8c.9,2.2,1.6,3.7,1.9,4.6Z" class="g2_4" />
<path d="M1013.6,623.8h9.8v65.7h-9.8V623.8Z" class="g2_4" />
<path d="M1109.6,623.8v68.6c-.8,-1,-2.5,-2.8,-4.9,-5.2c-2.4,-2.4,-5.2,-5.2,-8.3,-8.3c-3.1,-3.2,-6.5,-6.5,-10,-9.9c-3.5,-3.4,-6.9,-6.7,-10,-9.8c-3.1,-3.1,-5.9,-5.9,-8.2,-8.4c-2.4,-2.4,-4,-4.1,-4.7,-5.2l-1.8,-2.3l.3,2.9v43.3h-10V620.7c.7,.9,1.8,2.1,3.4,3.7c1.5,1.5,3.3,3.4,5.4,5.4c2.1,2.1,4.4,4.4,6.9,6.8c2.5,2.4,5,4.8,7.6,7.3c2.5,2.5,5.1,4.9,7.6,7.3c2.5,2.4,4.8,4.6,6.9,6.7c2,2,3.8,3.8,5.3,5.4c1.5,1.6,2.6,2.7,3.2,3.5l1.7,2.6l-.2,-3.1V623.8Z" class="g2_4" />
<path d="M82.7,779.6H97.2c-.8,-1.8,-1.5,-3.5,-2.2,-5.1c-.6,-1.6,-1.2,-3.1,-1.8,-4.5c-.6,-1.3,-1.1,-2.5,-1.5,-3.5c-.4,-1,-.7,-1.8,-.9,-2.4c-.1,-.1,-.2,-.5,-.4,-1.2c-.2,-.6,-.3,-1.2,-.4,-1.7c-.2,.5,-.3,1.1,-.5,1.7c-.2,.7,-.4,1.1,-.4,1.2Zm24.4,24c-.3,-.6,-.7,-1.5,-1.2,-2.6c-.4,-1.1,-1,-2.4,-1.6,-3.9c-.6,-1.4,-1.3,-3,-2,-4.8c-.7,-1.7,-1.4,-3.5,-2.2,-5.4H79.6l-6.8,16.7H64.1L90,742.9c.3,.7,.8,2.1,1.7,4c.8,2,1.8,4.4,2.9,7.1c1.2,2.8,2.5,5.8,3.9,9.1c1.4,3.4,2.8,6.7,4.3,10.2c1.5,3.4,2.9,6.7,4.3,10c1.4,3.3,2.7,6.4,3.9,9.2c1.2,2.7,2.2,5.1,3,7c.8,2,1.4,3.3,1.7,4.1Z" class="g1_4" />
<path d="M185,745.6v60.6c-.8,-.9,-2.2,-2.5,-4.3,-4.6c-2.2,-2.2,-4.6,-4.6,-7.4,-7.4c-2.8,-2.8,-5.7,-5.7,-8.8,-8.7c-3.2,-3,-6.1,-5.9,-8.9,-8.7c-2.8,-2.7,-5.2,-5.2,-7.3,-7.3c-2,-2.2,-3.4,-3.7,-4.1,-4.6l-1.5,-2.1l.2,2.5v38.3h-8.8V742.9c.6,.7,1.6,1.8,2.9,3.2c1.4,1.4,3,3,4.8,4.8c1.9,1.8,3.9,3.8,6.1,6c2.2,2.1,4.4,4.3,6.7,6.4c2.3,2.2,4.5,4.4,6.7,6.5c2.2,2.1,4.3,4,6.1,5.9c1.9,1.8,3.4,3.4,4.8,4.8c1.3,1.3,2.2,2.4,2.8,3.1l1.5,2.2l-.2,-2.7V745.6Z" class="g1_4" />
<path d="M226.6,795.3c3.1,0,5.9,-.5,8.6,-1.4c2.6,-.9,4.9,-2.2,6.8,-4c2,-1.7,3.5,-3.8,4.6,-6.4c1.1,-2.5,1.6,-5.4,1.6,-8.7c0,-3.5,-.6,-6.6,-1.8,-9.2c-1.2,-2.6,-2.8,-4.8,-4.8,-6.5c-2,-1.8,-4.2,-3,-6.7,-3.9c-2.5,-.8,-5,-1.2,-7.5,-1.2h-8.3v41.3ZM210.4,745.6H225c5.8,0,10.8,.9,14.8,2.6c4.1,1.8,7.4,4.1,9.9,6.9c2.5,2.9,4.4,6.1,5.5,9.6c1.2,3.6,1.8,7.1,1.8,10.6c0,4.4,-.8,8.3,-2.4,11.8c-1.5,3.5,-3.6,6.4,-6.3,8.9c-2.7,2.4,-5.7,4.3,-9.3,5.6c-3.5,1.3,-7.2,2,-11.2,2H210.4Z" class="g1_4" />
<path d="M308.1,803.6v-58h8.8v49.7h28.8v8.3Z" class="g1_4" />
<path d="M367.9,774.7c0,2.9,.5,5.7,1.6,8.3c1.1,2.6,2.6,4.8,4.6,6.7c1.9,2,4.1,3.5,6.7,4.6c2.5,1.1,5.2,1.7,8.1,1.7c2.9,0,5.6,-.6,8.1,-1.7c2.6,-1.1,4.8,-2.6,6.7,-4.6c1.9,-1.9,3.4,-4.1,4.5,-6.7c1.1,-2.6,1.6,-5.4,1.6,-8.4c0,-2.9,-.5,-5.7,-1.6,-8.3c-1.1,-2.5,-2.6,-4.8,-4.6,-6.7c-1.9,-1.9,-4.1,-3.5,-6.6,-4.6c-2.6,-1.1,-5.3,-1.7,-8.2,-1.7c-2.8,0,-5.6,.6,-8.1,1.7c-2.6,1.1,-4.8,2.7,-6.7,4.6c-1.9,1.9,-3.4,4.2,-4.5,6.8c-1.1,2.6,-1.6,5.4,-1.6,8.3m-8.7,-.1c0,-4,.7,-7.8,2.3,-11.4c1.5,-3.6,3.7,-6.7,6.4,-9.5c2.6,-2.7,5.8,-4.8,9.3,-6.4c3.6,-1.6,7.5,-2.4,11.6,-2.4c4,0,7.8,.8,11.4,2.4c3.6,1.6,6.8,3.7,9.5,6.4c2.7,2.8,4.8,5.9,6.4,9.5c1.6,3.6,2.3,7.4,2.3,11.4c0,4.1,-.7,8,-2.3,11.5c-1.6,3.6,-3.7,6.7,-6.4,9.4c-2.7,2.7,-5.9,4.8,-9.5,6.4c-3.6,1.5,-7.4,2.3,-11.4,2.3c-4.1,0,-8,-.8,-11.6,-2.3c-3.5,-1.6,-6.7,-3.7,-9.3,-6.4c-2.7,-2.7,-4.9,-5.8,-6.4,-9.4c-1.6,-3.5,-2.3,-7.4,-2.3,-11.5Z" class="g1_4" />
<path d="M483.1,775.8v24.3c-2.3,1.3,-4.9,2.3,-8,3c-3.1,.8,-6.3,1.1,-9.5,1.1c-4.6,0,-8.7,-.7,-12.3,-2.1c-3.7,-1.5,-6.8,-3.5,-9.4,-6c-2.6,-2.5,-4.6,-5.5,-6,-9c-1.4,-3.5,-2.1,-7.3,-2.1,-11.4c0,-4.5,.8,-8.6,2.4,-12.4c1.7,-3.8,3.9,-7,6.7,-9.7c2.8,-2.7,6,-4.9,9.7,-6.4c3.6,-1.5,7.5,-2.3,11.6,-2.3c2.8,0,5.7,.4,8.7,1.1c3,.7,5.7,1.8,7.9,3.1l-4.2,7.1c-.8,-.5,-1.7,-.9,-2.8,-1.3c-1,-.3,-2.1,-.6,-3.2,-.9c-1.1,-.3,-2.3,-.5,-3.4,-.6c-1.1,-.1,-2.2,-.2,-3.2,-.2c-2.8,0,-5.5,.5,-8.1,1.7c-2.6,1.1,-4.9,2.6,-6.9,4.6c-2,2,-3.6,4.3,-4.7,7c-1.2,2.6,-1.8,5.5,-1.8,8.6c0,2.8,.5,5.5,1.6,8c1,2.5,2.5,4.7,4.3,6.6c1.9,2,4.1,3.5,6.8,4.6c2.6,1.1,5.4,1.7,8.6,1.7c1.2,0,2.7,-.1,4.3,-.4c1.7,-.2,3.3,-.6,4.9,-1.2V783.3H463.7v-7.5Z" class="g1_4" />
<path d="M505.8,745.6h8.7v58h-8.7v-58Z" class="g1_4" />
<path d="M573.1,748.8l-3.1,7.1c-2.2,-.8,-4.4,-1.4,-6.5,-1.9c-2.2,-.5,-4.2,-.7,-6.2,-.7c-3.4,0,-6,.7,-8,2c-2,1.4,-3,3.2,-3,5.3c0,1.8,.7,3.3,2.1,4.4c1.5,1.1,3.2,2.1,5.4,2.9c2.1,.9,4.4,1.8,6.9,2.7c2.5,.9,4.9,2,7,3.4c2.1,1.4,3.9,3.1,5.3,5.2c1.5,2.1,2.2,4.8,2.2,8.1c0,2.6,-.5,4.9,-1.4,7c-.9,2,-2.3,3.8,-4.2,5.3c-1.8,1.5,-4.1,2.6,-6.8,3.4c-2.8,.8,-6,1.2,-9.7,1.2c-2.3,0,-4.4,-.1,-6.3,-.5c-1.9,-.3,-3.6,-.7,-5.1,-1.2c-1.6,-.5,-2.9,-1.1,-4,-1.6c-1.2,-.6,-2.2,-1.2,-3,-1.6l3.9,-7.6c2.1,1.2,4.5,2.2,7.1,2.9c2.6,.8,5,1.1,7.1,1.1c1.1,0,2.4,-.1,4,-.4c1.5,-.2,3,-.7,4.5,-1.4c1.4,-.6,2.7,-1.5,3.7,-2.6c1,-1.2,1.6,-2.6,1.6,-4.3c0,-1.5,-.4,-2.8,-1.3,-3.9c-.8,-1.1,-1.9,-2.1,-3.3,-2.9c-1.3,-.8,-2.9,-1.6,-4.6,-2.3c-1.7,-.6,-3.5,-1.3,-5.3,-2c-1.8,-.8,-3.6,-1.5,-5.3,-2.3c-1.8,-.8,-3.3,-1.8,-4.7,-2.9c-1.3,-1.2,-2.4,-2.5,-3.2,-4c-.9,-1.6,-1.3,-3.4,-1.3,-5.5c0,-2,.4,-3.9,1.2,-5.9c.8,-1.9,2,-3.6,3.6,-5.1c1.6,-1.5,3.6,-2.7,6,-3.6c2.3,-.9,5.1,-1.3,8.2,-1.3c2,0,3.8,.1,5.7,.4c1.8,.4,3.5,.7,5,1.1c1.5,.4,2.7,.8,3.8,1.2c1,.4,1.7,.6,2,.8Z" class="g1_4" />
<path d="M630.1,745.6v8.3H615.4v49.7h-8.7V753.9H592.4v-8.3Z" class="g1_4" />
<path d="M651.6,745.6h8.7v58h-8.7v-58Z" class="g1_4" />
<path d="M728.8,799.4c-.7,.5,-1.6,1,-2.7,1.6c-1.2,.5,-2.5,1.1,-4,1.5c-1.6,.5,-3.3,.9,-5.2,1.2c-1.9,.4,-3.9,.5,-6,.5c-4.6,0,-8.6,-.8,-12.2,-2.3c-3.6,-1.6,-6.7,-3.7,-9.2,-6.4c-2.5,-2.7,-4.4,-5.8,-5.8,-9.3c-1.3,-3.5,-2,-7.2,-2,-11.2c0,-4.4,.8,-8.4,2.4,-12.1c1.6,-3.6,3.7,-6.8,6.4,-9.5c2.8,-2.6,5.9,-4.7,9.6,-6.2c3.6,-1.5,7.5,-2.3,11.6,-2.3c1.6,0,3.2,.2,4.8,.4c1.6,.2,3.1,.5,4.5,.8c1.4,.4,2.6,.9,3.7,1.4c1.1,.5,2,1,2.6,1.5c-.5,.7,-.8,1.2,-1,1.6c-.3,.5,-.5,.9,-.8,1.3c-.3,.5,-.6,1,-.9,1.6c-.3,.6,-.7,1.4,-1.3,2.3c-.7,-.5,-1.5,-.9,-2.4,-1.2c-.9,-.3,-1.9,-.6,-2.9,-.8c-1,-.2,-2.1,-.3,-3.1,-.5c-1,-.1,-2,-.1,-2.8,-.1c-3.1,0,-6,.6,-8.6,1.7c-2.7,1.2,-5,2.7,-6.9,4.6c-1.9,2,-3.4,4.2,-4.5,6.8c-1.1,2.6,-1.6,5.2,-1.6,8c0,2.7,.5,5.3,1.5,7.8c1.1,2.5,2.5,4.8,4.3,6.8c1.9,1.9,4.1,3.5,6.7,4.7c2.6,1.1,5.4,1.7,8.5,1.7c1.6,0,3.2,-.1,4.8,-.4c1.5,-.4,2.9,-.7,4.2,-1.2c1.2,-.4,2.3,-.8,3.1,-1.2c.8,-.5,1.3,-.8,1.5,-1Z" class="g1_4" />
<path d="M781.2,748.8l-3.2,7.1c-2.1,-.8,-4.3,-1.4,-6.5,-1.9c-2.1,-.5,-4.2,-.7,-6.2,-.7c-3.3,0,-6,.7,-8,2c-2,1.4,-3,3.2,-3,5.3c0,1.8,.7,3.3,2.1,4.4c1.5,1.1,3.3,2.1,5.4,2.9c2.1,.9,4.5,1.8,7,2.7c2.5,.9,4.8,2,6.9,3.4c2.2,1.4,3.9,3.1,5.4,5.2c1.4,2.1,2.1,4.8,2.1,8.1c0,2.6,-.4,4.9,-1.4,7c-.9,2,-2.3,3.8,-4.1,5.3c-1.9,1.5,-4.2,2.6,-6.9,3.4c-2.7,.8,-6,1.2,-9.6,1.2c-2.4,0,-4.5,-.1,-6.4,-.5c-1.9,-.3,-3.6,-.7,-5.1,-1.2c-1.5,-.5,-2.9,-1.1,-4,-1.6c-1.2,-.6,-2.1,-1.2,-2.9,-1.6l3.8,-7.6c2.1,1.2,4.5,2.2,7.1,2.9c2.6,.8,5,1.1,7.1,1.1c1.1,0,2.4,-.1,4,-.4c1.6,-.2,3.1,-.7,4.5,-1.4c1.5,-.6,2.7,-1.5,3.7,-2.6c1.1,-1.2,1.6,-2.6,1.6,-4.3c0,-1.5,-.4,-2.8,-1.2,-3.9c-.9,-1.1,-2,-2.1,-3.3,-2.9c-1.4,-.8,-2.9,-1.6,-4.7,-2.3c-1.7,-.6,-3.5,-1.3,-5.3,-2c-1.8,-.8,-3.6,-1.5,-5.3,-2.3c-1.7,-.8,-3.3,-1.8,-4.6,-2.9c-1.4,-1.2,-2.5,-2.5,-3.3,-4c-.8,-1.6,-1.3,-3.4,-1.3,-5.5c0,-2,.4,-3.9,1.2,-5.9c.8,-1.9,2,-3.6,3.6,-5.1c1.6,-1.5,3.6,-2.7,6,-3.6c2.4,-.9,5.1,-1.3,8.3,-1.3c1.9,0,3.8,.1,5.6,.4c1.9,.4,3.5,.7,5,1.1c1.5,.4,2.8,.8,3.8,1.2c1.1,.4,1.7,.6,2.1,.8Z" class="g1_4" />
<path d="M833.9,803.6v-58h34.8v8.1h-26v17.5h22.7v8.1H842.7v24.3Z" class="g1_4" />
<path d="M894.2,774.7c0,2.9,.5,5.7,1.6,8.3c1.1,2.6,2.6,4.8,4.5,6.7c2,2,4.2,3.5,6.8,4.6c2.5,1.1,5.2,1.7,8.1,1.7c2.9,0,5.6,-.6,8.1,-1.7c2.6,-1.1,4.8,-2.6,6.7,-4.6c1.9,-1.9,3.4,-4.1,4.4,-6.7c1.1,-2.6,1.7,-5.4,1.7,-8.4c0,-2.9,-.6,-5.7,-1.7,-8.3c-1,-2.5,-2.6,-4.8,-4.5,-6.7c-1.9,-1.9,-4.1,-3.5,-6.7,-4.6c-2.5,-1.1,-5.2,-1.7,-8.1,-1.7c-2.8,0,-5.6,.6,-8.1,1.7c-2.6,1.1,-4.8,2.7,-6.7,4.6c-1.9,1.9,-3.4,4.2,-4.5,6.8c-1.1,2.6,-1.6,5.4,-1.6,8.3m-8.7,-.1c0,-4,.7,-7.8,2.3,-11.4c1.5,-3.6,3.6,-6.7,6.3,-9.5c2.7,-2.7,5.9,-4.8,9.4,-6.4c3.6,-1.6,7.4,-2.4,11.5,-2.4c4.1,0,7.9,.8,11.5,2.4c3.6,1.6,6.8,3.7,9.5,6.4c2.7,2.8,4.8,5.9,6.4,9.5c1.5,3.6,2.3,7.4,2.3,11.4c0,4.1,-.8,8,-2.3,11.5c-1.6,3.6,-3.7,6.7,-6.4,9.4c-2.7,2.7,-5.9,4.8,-9.5,6.4c-3.6,1.5,-7.4,2.3,-11.5,2.3c-4.1,0,-7.9,-.8,-11.5,-2.3c-3.5,-1.6,-6.7,-3.7,-9.4,-6.4c-2.7,-2.7,-4.8,-5.8,-6.3,-9.4c-1.6,-3.5,-2.3,-7.4,-2.3,-11.5Z" class="g1_4" />
<path d="M974.9,774.6h7.9c2.1,0,3.9,-.3,5.4,-1.1c1.4,-.7,2.5,-1.6,3.4,-2.6c.8,-1.1,1.4,-2.3,1.7,-3.5c.4,-1.2,.5,-2.3,.5,-3.3c0,-1,-.1,-2.2,-.5,-3.4c-.3,-1.2,-.9,-2.3,-1.8,-3.3c-.8,-1.1,-2,-1.9,-3.4,-2.6c-1.4,-.7,-3.1,-1.1,-5.2,-1.1h-8Zm-8.8,29v-58h15.8c3.1,0,5.8,.4,8.4,1.2c2.5,.8,4.7,2,6.5,3.5c1.9,1.6,3.3,3.5,4.3,5.8c1,2.3,1.5,4.9,1.5,7.8c0,1.6,-.1,3.2,-.4,4.8c-.4,1.5,-.9,3.1,-1.6,4.5c-.7,1.5,-1.6,2.8,-2.8,4.1c-1.1,1.3,-2.4,2.3,-4,3.2c2.1,3.3,4.4,7,6.9,11.1c2.5,4.1,5,8.1,7.6,12H997.8c-1,-1.7,-2.1,-3.4,-3.3,-5.2c-1.1,-1.8,-2.3,-3.6,-3.4,-5.4c-1.2,-1.8,-2.3,-3.6,-3.4,-5.3c-1.1,-1.7,-2.1,-3.3,-3.1,-4.8h-9.7v20.7Z" class="g1_4" />
<path d="M1048.3,804.2c-3.1,0,-6,-.5,-8.6,-1.5c-2.7,-1,-5,-2.4,-7,-4.3c-2,-1.8,-3.6,-4,-4.8,-6.6c-1.1,-2.6,-1.7,-5.5,-1.7,-8.7V745.6h8.8v37.3c0,1.8,.4,3.5,1,5.1c.7,1.6,1.6,3,2.8,4.2c1.2,1.2,2.6,2.1,4.2,2.8c1.6,.6,3.4,1,5.3,1c1.9,0,3.6,-.4,5.2,-1c1.7,-.7,3.1,-1.6,4.3,-2.8c1.2,-1.2,2.1,-2.6,2.8,-4.2c.7,-1.6,1.1,-3.3,1.1,-5.1V745.6h8.8v37.5c0,3.2,-.6,6.1,-1.8,8.7c-1.1,2.6,-2.7,4.8,-4.7,6.6c-2,1.9,-4.3,3.3,-7,4.3c-2.7,1,-5.6,1.5,-8.7,1.5Z" class="g1_4" />
<path d="M1095.2,743c.5,.8,1.5,2.2,3,4.3c1.6,2.1,3.3,4.6,5.3,7.3c2,2.8,4.1,5.7,6.4,8.9c2.2,3.1,4.3,6,6.3,8.8c2,2.7,3.7,5.1,5.2,7.1c1.4,2,2.4,3.4,2.9,4c.1,-.2,.6,-1,1.5,-2.1c.9,-1.2,1.9,-2.7,3.2,-4.4c1.2,-1.8,2.6,-3.8,4.2,-6c1.6,-2.2,3.3,-4.5,5,-6.8c1.6,-2.3,3.3,-4.6,4.9,-6.9c1.6,-2.3,3.2,-4.4,4.5,-6.3c1.4,-1.9,2.6,-3.5,3.6,-5c1,-1.4,1.7,-2.3,2.1,-2.9v60.6H1144V771.1c0,-.4,.1,-.9,.2,-1.4c0,-.4,.1,-.8,.1,-1c-.5,.6,-1.3,1.7,-2.3,3.2c-1,1.6,-2.2,3.3,-3.6,5.2c-1.4,2,-2.8,4,-4.3,6.2c-1.5,2.2,-2.9,4.2,-4.2,6.1c-1.4,1.9,-2.5,3.6,-3.5,5.1c-1.1,1.5,-1.7,2.5,-2.1,3.1c-.4,-.5,-1.1,-1.5,-2.2,-3c-1.1,-1.5,-2.4,-3.3,-3.9,-5.3c-1.4,-2.1,-3,-4.2,-4.6,-6.5c-1.6,-2.3,-3.1,-4.4,-4.5,-6.4c-1.4,-2,-2.6,-3.7,-3.6,-5.1c-1,-1.4,-1.6,-2.3,-1.8,-2.6c0,.2,.1,.6,.1,1c.1,.5,.2,1,.2,1.4v32.5h-8.8Z" class="g1_4" />

</svg>
