<?xml version="1.0" encoding="UTF-8" standalone="no"?>
<!-- Page 11 -->

<svg
   xmlns:dc="http://purl.org/dc/elements/1.1/"
   xmlns:cc="http://creativecommons.org/ns#"
   xmlns:rdf="http://www.w3.org/1999/02/22-rdf-syntax-ns#"
   xmlns:svg="http://www.w3.org/2000/svg"
   xmlns="http://www.w3.org/2000/svg"
   xmlns:sodipodi="http://sodipodi.sourceforge.net/DTD/sodipodi-0.dtd"
   xmlns:inkscape="http://www.inkscape.org/namespaces/inkscape"
   x="0"
   y="0"
   width="1210"
   height="400"
   viewBox="0 0 1210 400"
   version="1.1"
   style="display:block"
   id="svg20"
   sodipodi:docname="11.svg"
   inkscape:version="0.92.3 (2405546, 2018-03-11)">
  <metadata
     id="metadata24">
    <rdf:RDF>
      <cc:Work
         rdf:about="">
        <dc:format>image/svg+xml</dc:format>
        <dc:type
           rdf:resource="http://purl.org/dc/dcmitype/StillImage" />
        <dc:title></dc:title>
      </cc:Work>
    </rdf:RDF>
  </metadata>
  <sodipodi:namedview
     pagecolor="#ffffff"
     bordercolor="#666666"
     borderopacity="1"
     objecttolerance="10"
     gridtolerance="10"
     guidetolerance="10"
     inkscape:pageopacity="0"
     inkscape:pageshadow="2"
     inkscape:window-width="1920"
     inkscape:window-height="1017"
     id="namedview22"
     showgrid="false"
     inkscape:zoom="0.35180023"
     inkscape:cx="138.98682"
     inkscape:cy="487.04762"
     inkscape:window-x="1912"
     inkscape:window-y="-8"
     inkscape:window-maximized="1"
     inkscape:current-layer="svg20" />
  <defs
     id="defs4">
    <style
       type="text/css"
       id="style2"><![CDATA[

.g0_11{
fill: #D1463C;
}


]]></style>
  </defs>
  <path
     d="m 625.15725,60.388396 h 35.6 c -5.8,-0.7 -11.9,-1.1 -18.3,-1.1 -5.9,0 -11.7,0.4 -17.3,1.1 z"
     class="g0_11"
     id="path8"
     inkscape:connector-curvature="0"
     style="display:block;fill:#d1463c" />
  <path
     d="m 661.05725,330.2884 h -35.8 c 5.6,0.7 11.3,1.1 17.2,1.1 6.5,0 12.7,-0.4 18.6,-1.1 z"
     class="g0_11"
     id="path10"
     inkscape:connector-curvature="0"
     style="display:block;fill:#d1463c" />
  <path
     d="m 882.75725,60.388396 h -110.1 c 5.6,6.2 10.9,13.000001 15.8,20.400001 l -43.5,31.100003 c -17.6,-27.400003 -45.8,-46.800004 -84.2,-51.500004 h -35.6 c -66.4,8.2 -112,63.000004 -112,134.700004 0,71.7 45.7,127 112.1,135.2 h 35.8 c 40.4,-4.9 68.7,-25.9 89.3,-56.3 l 43.5,30.5 c -6.1,9.3 -13,17.9 -20.5,25.8 h 109.4 z"
     class="g0_11"
     id="path12"
     inkscape:connector-curvature="0"
     style="display:block;fill:#d1463c" />
  <path
     d="m 455.25725,195.0884 c 0,-54.7 21.1,-101.600003 55.3,-134.700004 h -144.3 V 330.2884 h 144.5 c -34.3,-33.3 -55.5,-80.4 -55.5,-135.2 z"
     class="g0_11"
     id="path14"
     inkscape:connector-curvature="0"
     style="display:block;fill:#d1463c" />
  <path
     d="m 289.55725,60.788396 -96.4,96.300004 -96.400003,-96.300004 -38.900002,38.800001 96.400005,96.400003 -96.400005,96.4 38.900002,38.9 96.400003,-96.4 96.4,96.4 38.9,-38.9 -96.4,-96.4 96.4,-96.400003 z"
     class="g0_11"
     id="path16"
     inkscape:connector-curvature="0"
     style="display:block;fill:#d1463c" />
  <path
     d="m 1152.4573,277.1884 -123.1,0.8 85.3,-65.2 0.5,-0.4 c 2.9,-2.1 5.9,-4.3 8.7,-6.7 l 3.1,-2.4 -0.2,-0.1 c 14.2,-12.7 26,-30 26,-57.8 0,-48.300003 -47,-84.600004 -109.7,-84.600004 -60.60002,0 -106.70005,34.100001 -109.60005,81.100004 l -0.8,12.1 h 60.90003 l 1.2,-10 c 1.9,-15.8 22.40002,-27.6 48.30002,-27.6 27.1,0 48.3,13.2 48.3,30 0,10.1 -4,16.9 -16.5,27.5 l -140.20005,107 -4.4,3.6 v 45.4 h 222.80005 z"
     class="g0_11"
     id="path18"
     inkscape:connector-curvature="0"
     style="display:block;fill:#d1463c" />
</svg>
